<?xml version="1.0" standalone="no"?><svg xmlns="http://www.w3.org/2000/svg" viewBox="0 0 1440 320"><path fill="#000" fill-opacity="1" d="M0,128L21.8,117.3C43.6,107,87,85,131,90.7C174.5,96,218,128,262,128C305.5,128,349,96,393,96C436.4,96,480,128,524,160C567.3,192,611,224,655,229.3C698.2,235,742,213,785,197.3C829.1,181,873,171,916,144C960,117,1004,75,1047,80C1090.9,85,1135,139,1178,144C1221.8,149,1265,107,1309,106.7C1352.7,107,1396,149,1418,170.7L1440,192L1440,320L1418.2,320C1396.4,320,1353,320,1309,320C1265.5,320,1222,320,1178,320C1134.5,320,1091,320,1047,320C1003.6,320,960,320,916,320C872.7,320,829,320,785,320C741.8,320,698,320,655,320C610.9,320,567,320,524,320C480,320,436,320,393,320C349.1,320,305,320,262,320C218.2,320,175,320,131,320C87.3,320,44,320,22,320L0,320Z"></path></svg>